<svg viewBox="0 0 26 26" fill="none" xmlns="http://www.w3.org/2000/svg"><path d="M25.87 13A12.87 12.87 0 11.12 13a12.87 12.87 0 0125.75 0z" fill="#ED1D24"/><path d="M20.76 18.23a.94.94 0 11-.94-.94c.54 0 .94.42.94.94zM9.16 18.75c-1-1.04-.23-3.05-.05-4.73-.23.22-2.33 5.15-4.27 5.15h-.1c-1.76-.17-1.53-2.6-.99-4.06h2.83c-.87 2.4.32 1.41 1.14-.1 1.64-3.32 1.66-3.4 3.45-8.4h3.12a44.78 44.78 0 00-2.08 8.35c0 .1.05.22.17.17.64-.1 4.14-7.98 4.46-8.53h3.13s-3.33 9.18-2.78 10.04c.27.5.64-.44 1-.81l.49.5c-.92 1-1.96 2.87-3.42 2.87-.13 0-.23-.03-.35-.03a1.27 1.27 0 01-.6-.32c-1.68-1.46 1.37-6.92 1.05-7.26-.1 0-.2.27-.38.64-.91 1.91-3.05 6.97-4.8 6.97-.3-.03-.73-.13-1.02-.45z" fill="#fff"/></svg>